<?xml version="1.0" standalone="no"?>
<!DOCTYPE svg PUBLIC "-//W3C//DTD SVG 20010904//EN"
 "http://www.w3.org/TR/2001/REC-SVG-20010904/DTD/svg10.dtd">
<svg version="1.0" xmlns="http://www.w3.org/2000/svg"
 width="1260.000000pt" height="1280.000000pt" viewBox="0 0 1260.000000 1280.000000"
 preserveAspectRatio="xMidYMid meet">

<g transform="translate(0.000000,1280.000000) scale(0.100000,-0.100000)"
fill="#000000" stroke="none">
<path d="M6580 12790 c8 -5 40 -10 70 -10 39 0 51 3 40 10 -8 5 -40 10 -70 10
-39 0 -51 -3 -40 -10z"/>
<path d="M6040 12519 c-25 -5 -112 -13 -195 -19 -153 -10 -261 -21 -395 -40
-41 -5 -101 -13 -133 -16 -31 -4 -60 -10 -63 -15 -3 -5 -27 -9 -53 -9 -26 0
-51 -4 -56 -9 -6 -5 -28 -11 -50 -14 -70 -10 -138 -24 -200 -42 -33 -9 -87
-23 -120 -31 -33 -8 -68 -19 -77 -25 -10 -5 -25 -9 -35 -9 -15 0 -61 -13 -108
-30 -11 -4 -40 -13 -65 -20 -25 -6 -53 -16 -62 -21 -10 -5 -25 -9 -33 -9 -8 0
-23 -4 -33 -9 -18 -9 -57 -25 -157 -61 -33 -12 -71 -27 -85 -32 -14 -6 -35
-15 -47 -19 -58 -23 -71 -28 -113 -46 -25 -11 -79 -37 -120 -57 -41 -20 -81
-36 -87 -36 -7 0 -13 -4 -13 -10 0 -5 -6 -10 -12 -10 -14 0 -194 -90 -293
-145 -33 -19 -76 -42 -95 -52 -19 -9 -37 -20 -40 -23 -3 -3 -27 -19 -55 -35
-27 -15 -82 -50 -122 -77 -40 -26 -76 -48 -81 -48 -5 0 -17 -9 -27 -20 -10
-11 -23 -20 -29 -20 -6 0 -23 -10 -38 -23 -15 -12 -66 -49 -114 -82 -48 -33
-92 -65 -98 -71 -6 -5 -37 -30 -69 -55 -113 -85 -130 -99 -185 -146 -258 -222
-424 -382 -600 -578 -171 -190 -219 -247 -321 -382 -25 -32 -48 -59 -53 -61
-4 -2 -8 -10 -8 -17 0 -7 -3 -15 -7 -17 -8 -3 -83 -106 -138 -188 -16 -25 -38
-54 -48 -64 -9 -11 -17 -23 -17 -28 0 -4 -29 -51 -64 -105 -35 -54 -70 -110
-77 -125 -7 -16 -16 -28 -21 -28 -4 0 -8 -9 -8 -20 0 -11 -3 -20 -7 -20 -5 0
-13 -10 -19 -23 -24 -48 -87 -163 -96 -174 -15 -18 2 -22 98 -19 86 2 93 4
132 35 70 55 192 192 235 265 29 48 43 86 49 129 8 59 66 212 97 253 9 12 30
31 47 43 28 19 44 21 210 21 156 0 183 2 209 18 49 30 81 89 135 245 95 280
250 551 455 795 138 165 341 357 510 485 44 34 82 64 85 68 8 10 162 112 195
129 17 8 32 17 35 20 5 5 101 56 190 101 40 21 165 77 195 89 11 4 31 12 45
18 35 15 153 46 295 77 81 18 154 42 225 75 131 60 238 91 455 130 94 17 233
47 310 66 161 41 343 77 464 94 80 11 235 1 281 -17 8 -3 -56 -12 -143 -19
-232 -19 -447 -78 -648 -178 -89 -45 -239 -149 -239 -166 0 -12 -4 -11 130
-40 116 -24 198 -51 308 -99 l73 -32 187 11 c103 6 246 20 317 30 730 108 941
117 1180 48 187 -54 420 -175 518 -269 l62 -60 -77 50 c-187 119 -406 211
-578 242 -95 17 -377 17 -485 0 -44 -7 -152 -28 -240 -48 -88 -19 -191 -41
-230 -48 l-70 -12 130 -63 c168 -80 293 -132 408 -169 160 -51 469 -94 862
-121 244 -16 483 -38 660 -60 88 -11 221 -26 296 -34 150 -17 270 -50 339 -94
51 -32 110 -95 110 -118 0 -9 -11 -2 -29 18 -101 115 -347 177 -707 179 -169
1 -196 -1 -259 -21 -95 -30 -144 -57 -154 -83 -23 -61 -22 -64 11 -98 44 -43
107 -71 284 -124 261 -77 405 -110 694 -162 135 -24 181 -27 360 -28 219 0
310 13 492 69 76 23 94 20 40 -8 -50 -25 -199 -75 -275 -90 -41 -9 -159 -27
-263 -41 -230 -30 -374 -52 -379 -57 -2 -2 27 -27 64 -56 101 -77 197 -183
282 -312 87 -133 103 -156 126 -190 21 -28 19 -28 -79 37 -36 24 -101 60 -145
79 -103 48 -263 114 -263 109 0 -3 12 -39 26 -81 16 -48 28 -111 31 -165 l6
-87 91 -25 c184 -51 293 -62 379 -38 76 22 77 -7 1 -40 -33 -15 -82 -21 -221
-28 -98 -5 -186 -12 -195 -16 -16 -6 -16 -9 -1 -31 9 -14 48 -44 86 -67 79
-47 173 -129 200 -176 10 -17 15 -31 12 -31 -4 0 -32 20 -63 44 -115 89 -239
140 -391 161 l-55 7 18 -28 c37 -58 102 -133 123 -143 12 -5 111 -28 220 -50
218 -45 345 -82 383 -111 l25 -20 -65 0 c-75 -1 -69 -7 35 -40 95 -31 171 -71
225 -119 l45 -40 -115 57 c-199 99 -389 131 -518 88 -58 -20 -58 -27 0 -45 51
-17 114 -65 133 -102 9 -17 14 -33 11 -36 -2 -3 -28 0 -56 6 -70 15 -229 14
-260 -2 -14 -7 -25 -21 -25 -32 0 -19 6 -20 132 -16 188 5 268 -17 358 -100
40 -37 90 -128 83 -150 -2 -6 -21 17 -43 51 -46 71 -108 116 -173 126 -46 7
-270 -2 -352 -15 l-45 -6 2 -43 c1 -24 13 -63 26 -87 l25 -44 -31 6 c-61 13
-72 10 -75 -19 -3 -23 3 -30 40 -49 l43 -23 -35 -9 c-81 -21 -158 -52 -208
-83 -29 -19 -56 -34 -61 -34 -5 0 -11 -5 -13 -12 -3 -7 -10 -8 -17 -4 -11 7
-11 10 0 18 10 6 7 7 -9 3 -22 -6 -23 -4 -19 24 3 17 1 31 -4 31 -6 0 -9 -6
-8 -12 4 -35 -1 -38 -80 -38 -67 0 -80 3 -84 18 -3 10 -5 6 -6 -10 -1 -28 -2
-28 -71 -28 -68 0 -70 1 -70 25 0 23 -4 25 -45 25 -33 0 -45 4 -45 15 0 11
-11 15 -40 15 -22 0 -40 -4 -40 -10 0 -5 -4 -10 -10 -10 -14 0 -60 52 -54 62
3 4 0 8 -6 8 -6 0 -10 -8 -8 -17 2 -14 -5 -19 -37 -21 -22 -2 -57 2 -78 8 -39
12 -63 6 -38 -9 9 -6 10 -10 2 -15 -6 -4 -54 7 -106 24 -90 30 -95 31 -120 14
-14 -9 -28 -14 -32 -10 -3 3 0 6 7 6 9 0 7 7 -6 23 l-19 22 23 -19 c16 -14 26
-16 33 -9 8 8 5 15 -12 24 -13 7 -30 19 -37 28 -12 14 -13 14 -8 -2 3 -10 -1
-28 -9 -40 -13 -19 -15 -19 -15 -3 0 12 -5 16 -14 13 -10 -4 -13 -1 -10 7 3 8
1 17 -5 21 -6 3 -11 1 -11 -4 0 -6 -5 -11 -11 -11 -6 0 -8 7 -5 16 6 15 4 15
-11 3 -15 -13 -16 -12 -10 10 4 17 3 21 -5 13 -8 -8 -7 -21 5 -49 28 -68 88
-245 124 -373 34 -116 36 -135 37 -265 0 -122 -2 -146 -21 -185 -12 -25 -29
-54 -38 -65 -16 -19 -16 -19 -10 10 23 107 11 415 -17 415 -5 0 -6 4 -3 10 14
23 -40 150 -85 197 -11 12 -20 27 -20 32 0 5 -9 13 -20 16 -11 4 -18 10 -15
15 3 5 -6 17 -20 28 -14 11 -25 26 -25 33 0 7 -2 10 -5 7 -3 -2 -28 17 -57 44
-99 94 -192 148 -398 231 -144 58 -189 73 -336 112 -19 5 -22 0 -27 -36 -3
-22 -13 -49 -22 -59 -15 -16 -14 -20 5 -56 12 -22 30 -48 39 -59 26 -31 63
-105 53 -105 -5 0 -43 23 -85 51 -44 29 -81 47 -88 43 -7 -4 -9 -3 -6 3 8 13
-38 34 -60 27 -13 -4 -15 -3 -5 4 10 7 4 15 -25 32 -28 18 -55 24 -103 25
l-65 2 55 -7 c30 -3 45 -7 32 -8 -23 -2 -23 -3 7 -28 17 -14 37 -24 44 -21 8
3 13 -3 13 -14 0 -12 -7 -19 -18 -19 -15 0 -18 -8 -18 -45 0 -38 -3 -45 -20
-45 -17 0 -20 -7 -20 -40 0 -29 -4 -40 -15 -40 -8 0 -15 -4 -15 -9 0 -5 -9 -7
-20 -4 -11 3 -18 9 -15 13 8 12 -21 20 -33 8 -6 -6 -15 -2 -26 13 -9 13 -16
21 -16 17 0 -12 61 -180 85 -234 20 -45 26 -52 45 -47 16 4 18 8 8 14 -25 16
14 41 58 37 l39 -4 -35 -11 c-19 -6 -29 -12 -21 -12 8 -1 51 -11 95 -23 61
-16 101 -36 170 -83 50 -34 134 -91 186 -127 52 -36 115 -79 140 -96 113 -76
144 -132 142 -253 -1 -82 -34 -305 -66 -441 -19 -81 -118 -387 -164 -503 -82
-211 -187 -327 -353 -395 -102 -41 -122 -66 -149 -186 -55 -247 -78 -330 -110
-399 -44 -94 -67 -155 -61 -155 10 0 91 171 127 267 14 37 44 131 66 208 21
77 46 150 54 163 8 12 56 43 106 68 106 53 193 130 243 215 45 77 89 192 179
464 97 296 131 432 145 579 7 65 14 123 17 128 10 15 22 -2 17 -23 -7 -27 19
-46 29 -21 5 14 7 14 7 2 1 -10 18 -20 46 -28 43 -11 62 -32 30 -32 -8 0 -15
-4 -15 -8 0 -14 23 -32 42 -32 12 0 18 -7 18 -22 -1 -28 -24 -61 -35 -50 -5 4
-5 2 -2 -4 4 -6 21 -14 39 -18 17 -3 43 -14 57 -22 21 -15 22 -18 8 -26 -15
-8 -15 -11 -2 -32 8 -12 12 -25 9 -29 -3 -3 7 -12 24 -21 16 -8 32 -13 35 -9
7 6 45 -16 72 -44 10 -10 21 -18 24 -18 3 0 5 -15 3 -34 -2 -24 3 -39 17 -53
12 -10 21 -22 21 -26 0 -4 11 -20 25 -36 14 -16 25 -35 25 -43 0 -8 7 -21 15
-29 8 -9 15 -26 15 -39 0 -13 5 -36 11 -52 9 -25 11 -26 20 -10 16 29 27 11
34 -58 4 -36 12 -65 17 -65 5 0 6 -5 3 -10 -7 -11 26 -71 54 -102 21 -22 32
-36 59 -75 13 -18 30 -33 38 -33 8 0 14 -7 14 -16 0 -8 5 -12 10 -9 6 3 13 -1
16 -9 9 -24 23 -19 35 11 7 19 7 35 0 50 -7 15 -7 23 -1 23 6 0 10 5 10 11 0
5 -5 7 -11 3 -8 -5 -10 3 -5 27 4 19 11 54 16 79 l9 45 -4 -56 c-2 -31 0 -61
5 -65 4 -5 15 -52 24 -104 45 -261 176 -595 347 -886 114 -195 342 -518 457
-648 l33 -38 147 51 c282 96 563 181 601 181 36 0 42 -4 72 -51 21 -34 58
-130 105 -278 73 -231 124 -366 188 -504 37 -80 212 -345 343 -520 79 -107 83
-118 57 -200 -15 -47 -34 -69 -208 -235 -188 -181 -337 -301 -611 -497 -200
-142 -395 -296 -395 -311 0 -4 12 4 28 17 41 38 200 160 261 201 44 30 59 35
90 31 20 -3 41 -12 47 -20 10 -11 13 -9 19 14 5 20 2 31 -12 41 -17 12 -16 14
11 35 26 20 244 171 461 321 44 30 132 99 195 152 l115 97 20 -44 c28 -61 105
-201 121 -219 7 -8 19 -33 27 -55 7 -22 76 -123 153 -225 137 -183 405 -575
478 -699 20 -35 35 -70 32 -78 -10 -24 31 4 61 43 16 19 48 61 73 93 78 99 89
113 175 236 47 66 94 131 105 145 11 14 20 30 20 36 0 6 9 19 20 29 11 10 20
22 20 26 0 5 25 47 55 94 30 46 55 89 55 94 0 5 3 11 8 13 4 2 16 21 28 43 31
59 82 152 118 215 18 30 39 71 48 90 9 19 37 80 63 135 58 124 79 170 98 215
8 19 24 56 36 82 11 26 21 52 21 58 0 6 5 19 10 30 6 11 15 29 20 40 6 11 10
26 10 33 0 7 9 32 20 55 11 22 20 46 20 51 0 6 7 27 16 48 24 54 30 72 44 123
6 25 16 53 21 62 5 10 9 29 9 42 0 14 5 28 10 31 6 3 10 19 10 35 0 16 4 32
10 35 5 3 10 19 10 35 0 16 4 31 9 34 5 3 11 20 14 38 3 18 10 51 16 73 5 22
14 58 19 80 18 79 34 140 43 171 5 17 9 44 9 60 0 17 4 34 9 40 5 5 12 32 15
59 3 28 10 82 16 120 36 239 50 369 56 535 2 76 10 145 17 159 9 17 12 106 12
316 0 210 -3 299 -12 316 -7 14 -15 83 -17 159 -7 167 -22 318 -56 530 -6 36
-13 88 -16 115 -3 28 -10 54 -15 60 -5 5 -9 22 -9 38 0 16 -4 46 -10 66 -11
43 -48 189 -61 246 -6 22 -15 58 -20 80 -6 22 -13 55 -16 73 -3 18 -9 35 -14
38 -5 3 -9 18 -9 34 0 16 -4 32 -10 35 -5 3 -10 17 -10 30 0 13 -4 27 -10 30
-5 3 -10 19 -10 35 0 16 -4 32 -10 35 -5 3 -10 15 -10 26 0 10 -4 27 -9 37 -6
9 -22 51 -36 92 -15 41 -30 84 -35 95 -4 11 -18 47 -30 80 -27 74 -33 88 -59
147 -12 26 -21 50 -21 53 0 19 -251 527 -270 545 -3 3 -14 23 -26 45 -32 61
-62 113 -100 172 -19 29 -34 57 -34 62 0 4 -9 16 -20 26 -11 10 -20 22 -20 28
0 8 -174 267 -206 306 -7 9 -41 54 -76 100 -98 130 -99 132 -157 201 -152 181
-278 316 -466 500 -112 109 -255 239 -304 275 -15 11 -65 52 -112 90 -46 39
-113 92 -149 118 -36 27 -72 54 -80 60 -44 36 -240 167 -249 167 -6 0 -11 4
-11 9 0 5 -15 16 -32 25 -18 9 -68 39 -111 66 -43 28 -83 50 -88 50 -5 0 -9 4
-9 9 0 5 -8 11 -17 14 -10 3 -54 26 -98 51 -119 68 -478 244 -560 276 -25 9
-62 24 -97 39 -16 6 -39 16 -53 21 -14 6 -35 14 -47 19 -13 5 -57 21 -98 36
-41 14 -83 30 -92 36 -10 5 -27 9 -37 9 -11 0 -23 5 -26 10 -3 6 -17 10 -30
10 -13 0 -26 4 -29 9 -3 5 -18 11 -33 14 -16 3 -46 10 -68 17 -22 6 -53 15
-70 20 -161 46 -297 82 -350 92 -27 5 -70 14 -95 19 -208 45 -484 82 -730 98
-80 6 -176 15 -215 20 -83 12 -451 12 -515 0z m327 -3435 c-3 -3 -12 -4 -19
-1 -8 3 -5 6 6 6 11 1 17 -2 13 -5z m-230 -190 c-3 -3 -12 -4 -19 -1 -8 3 -5
6 6 6 11 1 17 -2 13 -5z m2215 -209 c0 -5 -6 -11 -13 -14 -7 -2 -9 1 -4 9 5 9
4 11 -4 6 -6 -4 -9 -12 -6 -17 8 -13 -56 -90 -68 -82 -6 4 -8 0 -4 -10 3 -8
-3 -32 -13 -52 -10 -20 -17 -44 -14 -53 3 -10 -1 -7 -7 6 -10 18 -9 25 5 41 9
10 18 32 20 47 1 18 7 28 15 26 8 -2 11 3 8 12 -3 8 1 20 9 26 8 7 14 18 14
25 0 14 40 45 53 42 5 -2 9 -7 9 -12z m-1005 -57 c-3 -8 -6 -5 -6 6 -1 11 2
17 5 13 3 -3 4 -12 1 -19z m870 -250 c-2 -13 -4 -3 -4 22 0 25 2 35 4 23 2
-13 2 -33 0 -45z m8 -58 c-3 -5 -12 -10 -18 -10 -7 0 -6 4 3 10 19 12 23 12
15 0z m-1447 -235 c-3 -3 -13 7 -23 22 l-17 28 23 -22 c12 -12 20 -25 17 -28z
m342 -505 c0 -5 -2 -10 -4 -10 -3 0 -8 5 -11 10 -3 6 -1 10 4 10 6 0 11 -4 11
-10z m617 -52 c-3 -8 -6 -5 -6 6 -1 11 2 17 5 13 3 -3 4 -12 1 -19z m-30 -90
c-3 -8 -6 -5 -6 6 -1 11 2 17 5 13 3 -3 4 -12 1 -19z m-190 -505 c-3 -10 -5
-2 -5 17 0 19 2 27 5 18 2 -10 2 -26 0 -35z m90 -45 c-3 -8 -6 -5 -6 6 -1 11
2 17 5 13 3 -3 4 -12 1 -19z"/>
<path d="M4734 11887 c-3 -9 -10 -15 -15 -12 -4 3 -13 -4 -19 -15 -9 -16 -8
-20 5 -20 9 0 14 -4 11 -9 -3 -4 7 -7 23 -5 17 2 34 -3 41 -11 9 -11 33 -15
79 -15 66 0 271 26 280 36 20 20 -134 53 -281 61 -103 5 -118 4 -124 -10z"/>
<path d="M3655 11674 c-208 -37 -408 -117 -539 -216 -98 -74 -294 -265 -331
-323 -31 -49 -122 -282 -113 -291 3 -2 38 7 79 21 80 28 302 50 385 38 46 -6
88 6 136 39 38 26 202 208 328 364 116 143 134 164 203 241 52 58 61 98 29
126 -22 20 -67 20 -177 1z"/>
<path d="M7520 11380 c20 -13 73 -13 65 0 -3 6 -23 10 -43 10 -28 0 -33 -3
-22 -10z"/>
<path d="M7198 10503 c7 -3 16 -2 19 1 4 3 -2 6 -13 5 -11 0 -14 -3 -6 -6z"/>
<path d="M8322 10458 c32 -41 88 -154 122 -249 18 -49 44 -69 145 -109 l54
-21 -6 58 c-16 153 -62 219 -199 288 -40 20 -86 45 -103 55 -47 29 -50 23 -13
-22z"/>
<path d="M7270 10480 c8 -5 20 -10 25 -10 6 0 3 5 -5 10 -8 5 -19 10 -25 10
-5 0 -3 -5 5 -10z"/>
<path d="M977 9263 c-5 -7 -5 -13 -1 -13 4 0 -1 -9 -11 -20 -22 -24 -11 -41
11 -18 9 8 14 26 12 39 -2 17 -6 20 -11 12z"/>
<path d="M936 9181 c-4 -7 -5 -15 -2 -18 9 -9 19 4 14 18 -4 11 -6 11 -12 0z"/>
<path d="M910 9130 c0 -5 5 -10 10 -10 6 0 10 5 10 10 0 6 -4 10 -10 10 -5 0
-10 -4 -10 -10z"/>
<path d="M890 9085 c0 -8 5 -15 10 -15 6 0 10 7 10 15 0 8 -4 15 -10 15 -5 0
-10 -7 -10 -15z"/>
<path d="M870 9044 c0 -8 5 -12 10 -9 6 3 10 10 10 16 0 5 -4 9 -10 9 -5 0
-10 -7 -10 -16z"/>
<path d="M8173 9043 c9 -15 49 -21 73 -12 17 7 16 8 -6 8 -14 1 -36 4 -49 8
-16 4 -22 2 -18 -4z"/>
<path d="M8308 9033 c18 -2 45 -2 60 0 15 2 0 4 -33 4 -33 0 -45 -2 -27 -4z"/>
<path d="M8139 9003 c-13 -16 -12 -17 4 -4 9 7 17 15 17 17 0 8 -8 3 -21 -13z"/>
<path d="M850 8994 c0 -8 5 -12 10 -9 6 3 10 10 10 16 0 5 -4 9 -10 9 -5 0
-10 -7 -10 -16z"/>
<path d="M8110 8980 c8 -5 20 -10 25 -10 6 0 3 5 -5 10 -8 5 -19 10 -25 10 -5
0 -3 -5 5 -10z"/>
<path d="M8408 8983 c7 -3 16 -2 19 1 4 3 -2 6 -13 5 -11 0 -14 -3 -6 -6z"/>
<path d="M5891 8964 c0 -11 3 -14 6 -6 3 7 2 16 -1 19 -3 4 -6 -2 -5 -13z"/>
<path d="M8048 8968 c-16 -5 -28 -14 -28 -20 0 -6 -7 -7 -16 -4 -10 4 -13 2
-8 -6 5 -8 2 -9 -10 -5 -9 4 -36 2 -60 -5 -30 -8 -67 -8 -124 -2 -45 6 -82 7
-82 3 0 -11 145 -22 188 -16 35 6 35 5 13 -7 -19 -11 -21 -14 -7 -19 9 -4 16
-2 16 3 0 4 22 16 50 25 27 9 54 24 59 32 5 10 15 14 25 10 11 -4 15 -3 10 4
-4 8 1 9 17 4 19 -5 21 -4 9 4 -17 12 -17 12 -52 -1z m-71 -44 c-3 -3 -12 -4
-19 -1 -8 3 -5 6 6 6 11 1 17 -2 13 -5z"/>
<path d="M821 8938 c-8 -18 -25 -58 -39 -88 -23 -53 -33 -76 -51 -122 -4 -13
-13 -34 -19 -48 -5 -14 -15 -41 -22 -60 -7 -19 -18 -48 -25 -65 -7 -16 -19
-48 -26 -70 -7 -22 -17 -44 -21 -49 -4 -6 -8 -20 -8 -32 0 -13 -4 -26 -10 -29
-5 -3 -10 -15 -10 -26 0 -10 -4 -27 -9 -37 -5 -9 -14 -37 -21 -62 -7 -25 -16
-53 -21 -62 -5 -10 -9 -29 -9 -42 0 -14 -4 -27 -9 -30 -5 -3 -11 -20 -14 -38
-3 -18 -22 -96 -42 -173 -38 -143 -51 -199 -61 -270 -3 -22 -9 -49 -14 -60 -5
-11 -11 -40 -14 -65 -3 -25 -10 -76 -16 -115 -35 -230 -49 -365 -60 -555 -5
-85 -13 -182 -19 -215 -12 -76 -12 -361 0 -440 5 -33 14 -134 19 -225 17 -272
44 -489 100 -780 29 -153 50 -241 112 -460 5 -19 12 -46 14 -60 3 -14 9 -34
14 -45 4 -11 13 -40 20 -65 6 -25 16 -53 21 -62 5 -10 9 -27 9 -37 0 -11 5
-23 10 -26 6 -3 10 -16 10 -29 0 -12 4 -26 8 -31 4 -6 14 -28 21 -50 7 -22 19
-53 26 -70 7 -16 18 -46 25 -65 15 -44 24 -67 40 -105 7 -16 16 -39 20 -50 9
-22 35 -81 82 -185 76 -167 258 -520 278 -540 3 -3 16 -25 29 -50 34 -62 191
-304 276 -423 39 -55 75 -106 80 -115 6 -10 13 -19 16 -22 3 -3 24 -28 45 -56
21 -28 53 -68 69 -90 17 -21 44 -55 62 -74 17 -19 42 -48 54 -65 134 -175 546
-578 808 -791 13 -10 38 -30 55 -45 17 -14 60 -46 96 -73 36 -26 72 -53 80
-59 8 -7 47 -35 85 -62 39 -27 72 -53 73 -57 2 -5 8 -8 13 -8 5 0 49 -26 97
-58 48 -32 109 -72 135 -88 27 -16 65 -39 85 -52 21 -13 45 -25 55 -29 9 -3
17 -8 17 -12 0 -3 15 -13 33 -20 17 -8 55 -28 82 -44 90 -53 176 -97 191 -97
8 0 14 -4 14 -10 0 -5 9 -10 20 -10 11 0 20 -4 20 -10 0 -5 6 -10 13 -10 11 0
111 -45 200 -90 22 -11 45 -20 53 -20 8 0 14 -4 14 -10 0 -5 9 -10 20 -10 11
0 28 -4 38 -9 18 -9 58 -26 102 -44 14 -5 33 -13 42 -18 10 -5 25 -9 33 -9 8
0 23 -4 33 -10 28 -15 84 -37 127 -50 22 -7 48 -16 57 -21 10 -5 27 -9 37 -9
11 0 23 -5 26 -10 3 -6 19 -10 35 -10 16 0 32 -4 35 -10 3 -5 19 -10 36 -10
16 0 29 -4 29 -10 0 -5 15 -10 34 -10 19 0 37 -4 40 -9 3 -5 20 -11 38 -14 41
-7 93 -20 183 -46 39 -11 82 -21 97 -21 15 0 30 -5 33 -10 3 -6 26 -10 50 -10
24 0 47 -5 50 -10 3 -6 23 -10 44 -10 35 0 46 8 125 88 114 117 125 134 163
238 42 120 148 528 193 750 21 99 42 189 48 200 6 10 26 35 46 53 20 19 36 38
36 43 0 9 -126 188 -214 303 -88 116 -205 254 -248 293 -60 54 -55 69 80 239
72 90 298 351 327 378 22 20 155 175 300 350 82 99 165 198 185 220 55 63 90
108 90 116 0 4 -24 38 -53 75 -29 38 -90 119 -137 179 -74 97 -248 312 -519
639 -108 130 -146 159 -221 164 -52 4 -67 0 -151 -41 -52 -25 -146 -79 -209
-120 -443 -290 -549 -347 -645 -347 -92 0 -133 52 -207 260 -38 107 -130 303
-163 346 -14 18 -70 62 -124 98 -147 96 -161 124 -118 227 14 34 20 38 84 53
38 10 83 16 98 14 21 -2 30 2 33 15 5 22 -28 22 -128 -1 -50 -12 -111 -18
-180 -17 -188 2 -219 34 -274 282 -33 148 -61 176 -183 182 l-83 3 0 -86 c0
-62 6 -103 22 -148 24 -71 100 -213 154 -288 54 -75 36 -70 -25 6 -55 68 -125
193 -156 277 -10 26 -21 44 -25 40 -19 -20 -50 -138 -50 -187 0 -88 27 -206
52 -234 40 -42 200 -111 346 -148 75 -19 144 -38 152 -41 28 -12 -154 -27
-302 -25 -82 1 -148 -1 -148 -4 0 -26 40 -68 92 -98 68 -39 72 -49 7 -15 -23
11 -44 18 -47 15 -12 -13 45 -111 86 -147 33 -29 66 -45 131 -64 47 -14 95
-30 106 -35 18 -8 18 -9 -5 -9 -65 -1 -222 30 -293 58 -172 69 -273 128 -358
209 -26 24 -49 40 -52 35 -3 -4 -28 -66 -56 -136 -39 -98 -51 -141 -51 -181 0
-66 30 -117 78 -131 17 -5 32 -13 32 -17 0 -13 -54 -9 -100 7 -23 8 -62 15
-85 15 -41 0 -47 -4 -115 -77 -94 -102 -134 -128 -220 -143 -38 -6 -75 -10
-82 -8 -7 3 12 20 42 40 104 67 196 195 252 353 27 74 29 87 23 178 -7 117
-29 204 -87 353 l-43 111 -99 91 c-87 80 -201 167 -299 227 l-32 20 32 -40
c17 -22 48 -56 68 -75 37 -35 81 -90 72 -90 -13 0 -115 95 -347 324 -146 144
-296 282 -350 322 -84 63 -232 204 -288 273 -10 14 -25 22 -33 19 -18 -7 -108
-188 -149 -298 -74 -199 -91 -404 -45 -526 29 -78 12 -71 -28 10 -70 142 -32
366 147 860 l34 92 -24 75 c-13 41 -24 89 -24 107 0 29 5 34 54 56 30 14 64
38 79 58 65 84 124 261 128 380 2 72 -12 107 -61 153 -43 40 -90 115 -165 261
-68 131 -108 230 -102 248 3 6 10 -2 16 -19 22 -55 119 -190 160 -223 55 -44
170 -97 183 -84 15 15 44 143 63 283 20 136 16 301 -9 379 -7 25 -33 86 -58
135 -24 50 -56 124 -72 165 -41 107 -62 145 -99 184 -49 50 -76 55 -104 20
-46 -56 -125 -197 -148 -261 -41 -117 -48 -1 -14 224 29 191 14 335 -41 406
-11 14 -20 37 -20 51 0 35 -12 33 -29 -6z m169 -1233 c0 -5 -5 -3 -10 5 -5 8
-10 20 -10 25 0 6 5 3 10 -5 5 -8 10 -19 10 -25z"/>
<path d="M5900 8931 c0 -6 4 -13 10 -16 6 -3 7 1 4 9 -7 18 -14 21 -14 7z"/>
<path d="M7743 8903 c9 -2 23 -2 30 0 6 3 -1 5 -18 5 -16 0 -22 -2 -12 -5z"/>
<path d="M8020 8899 c0 -5 5 -7 10 -4 6 3 10 8 10 11 0 2 -4 4 -10 4 -5 0 -10
-5 -10 -11z"/>
<path d="M7811 8896 c2 -2 22 -6 44 -9 27 -4 35 -3 25 3 -14 9 -79 15 -69 6z"/>
<path d="M7978 8893 c7 -3 16 -2 19 1 4 3 -2 6 -13 5 -11 0 -14 -3 -6 -6z"/>
<path d="M8575 8830 c-8 -13 5 -13 25 0 13 8 13 10 -2 10 -9 0 -20 -4 -23 -10z"/>
<path d="M8403 8768 c-1 -11 1 -16 5 -12 4 5 11 12 15 15 5 3 2 9 -5 12 -9 3
-14 -3 -15 -15z"/>
<path d="M5901 8744 c0 -11 3 -14 6 -6 3 7 2 16 -1 19 -3 4 -6 -2 -5 -13z"/>
<path d="M5583 8619 c-48 -33 -129 -64 -197 -74 l-45 -7 15 -30 c8 -16 18 -50
21 -76 5 -42 2 -50 -24 -77 -25 -27 -29 -36 -24 -62 0 -4 8 2 17 13 15 18 15
18 4 -3 -9 -19 -3 -37 34 -110 46 -90 71 -187 80 -308 6 -80 27 -246 33 -265
3 -8 6 -33 5 -55 0 -33 1 -35 5 -10 5 26 6 27 13 10 10 -28 21 96 23 265 2
102 5 135 15 135 17 0 61 95 79 170 7 33 25 78 38 100 22 38 33 51 92 116 39
43 38 75 -5 159 -26 52 -51 85 -81 107 -23 18 -46 33 -49 33 -4 -1 -26 -14
-49 -31z m-18 -39 c-3 -5 -12 -10 -18 -10 -7 0 -6 4 3 10 19 12 23 12 15 0z
m137 -49 c2 -17 1 -28 -4 -25 -8 5 -12 54 -4 54 2 0 6 -13 8 -29z"/>
<path d="M3692 8455 c15 -16 30 -26 33 -23 4 3 -9 16 -27 28 l-33 23 27 -28z"/>
<path d="M6123 8333 c-34 -5 -50 -28 -32 -49 6 -8 9 -20 6 -28 -4 -10 -1 -13
9 -9 12 4 14 15 11 42 -3 20 -3 28 -1 19 7 -22 30 -24 38 -3 4 12 10 13 45 0
21 -7 43 -10 47 -7 4 4 5 0 2 -9 -5 -12 -1 -15 18 -11 31 6 30 14 -4 34 -32
19 -90 28 -139 21z"/>
<path d="M6025 8260 c7 -24 6 -24 -11 -8 -17 17 -20 16 -53 -9 -48 -36 -52
-43 -46 -78 4 -22 2 -26 -5 -15 -9 13 -10 13 -9 0 1 -20 17 -59 18 -42 1 6 7
12 15 12 7 0 21 11 29 24 12 18 29 26 67 31 49 7 50 8 50 41 0 23 -6 37 -20
44 -11 6 -20 7 -20 3 0 -4 -5 -1 -11 7 -8 11 -9 9 -4 -10z m-25 -40 c0 -5 -5
-10 -11 -10 -5 0 -7 5 -4 10 3 6 8 10 11 10 2 0 4 -4 4 -10z"/>
<path d="M6280 8271 c-17 -5 -21 -9 -12 -15 7 -4 19 -2 27 4 8 6 19 9 25 5 5
-3 10 -1 10 4 0 12 -12 13 -50 2z"/>
<path d="M6160 8250 c0 -5 6 -10 14 -10 8 0 18 5 21 10 3 6 -3 10 -14 10 -12
0 -21 -4 -21 -10z"/>
<path d="M6028 8153 c7 -3 16 -2 19 1 4 3 -2 6 -13 5 -11 0 -14 -3 -6 -6z"/>
<path d="M6065 8140 c3 -5 8 -10 11 -10 2 0 4 5 4 10 0 6 -5 10 -11 10 -5 0
-7 -4 -4 -10z"/>
<path d="M5891 8104 c0 -11 3 -14 6 -6 3 7 2 16 -1 19 -3 4 -6 -2 -5 -13z"/>
<path d="M5871 8058 c-1 -4 4 -19 10 -34 l10 -28 -22 19 c-20 18 -22 18 -16 2
4 -10 3 -16 -2 -13 -4 3 -16 -3 -26 -14 -10 -12 -13 -20 -7 -20 7 0 12 5 12
10 0 7 6 7 19 0 22 -11 51 -4 51 14 -1 13 -28 74 -29 64z"/>
<path d="M5894 8048 c3 -7 9 -21 12 -30 6 -16 9 -16 36 3 22 16 26 24 17 30
-8 4 -20 3 -28 -4 -11 -9 -15 -9 -18 1 -3 6 -9 12 -15 12 -5 0 -7 -6 -4 -12z"/>
<path d="M5095 7895 c10 -65 25 -101 17 -42 l-4 32 36 -42 c20 -23 70 -84 112
-135 141 -176 225 -275 251 -299 l26 -24 -16 31 c-28 55 -225 302 -431 541 -1
1 3 -27 9 -62z"/>
<path d="M6467 7890 c6 -35 13 -55 52 -142 11 -26 21 -50 21 -53 0 -3 9 -24
19 -48 10 -23 25 -57 32 -75 16 -36 28 -37 46 -1 14 27 1 38 -21 20 -10 -9
-13 -5 -12 16 0 16 -3 38 -7 51 -8 20 -5 22 22 22 24 0 31 4 31 20 0 19 -1 20
-24 5 -23 -15 -24 -15 -30 16 -3 17 -6 42 -6 55 0 13 -4 24 -10 24 -5 0 -10 8
-10 17 0 9 -3 14 -6 10 -8 -7 -28 12 -37 36 -3 9 -15 17 -25 17 -10 0 -24 10
-30 23 -9 19 -10 17 -5 -13z"/>
<path d="M4717 7826 c6 -37 32 -102 33 -81 1 6 7 -5 16 -24 8 -19 17 -32 20
-29 5 5 -35 98 -47 108 -3 3 -11 19 -17 35 -11 29 -11 29 -5 -9z"/>
<path d="M5837 7843 c-4 -3 -7 -27 -7 -51 0 -56 40 -143 78 -170 28 -21 132
-52 171 -52 20 0 220 -73 319 -116 23 -10 42 -24 42 -31 0 -13 -70 -73 -109
-93 -40 -20 -98 -14 -132 14 -32 27 -85 42 -117 32 -77 -25 -94 -87 -37 -137
35 -31 35 -31 34 -113 -1 -44 2 -100 6 -124 l7 -43 32 45 c17 25 53 76 79 115
40 58 59 76 115 106 154 84 175 119 166 271 -3 55 -12 111 -19 125 -18 33 -87
95 -129 116 -31 14 -36 14 -72 -3 -21 -9 -73 -41 -116 -71 -60 -42 -84 -53
-115 -53 -25 0 -33 3 -24 9 11 7 11 10 0 17 -7 4 -14 3 -17 -4 -2 -7 -8 -12
-14 -12 -12 0 1 42 16 52 7 5 4 8 -7 8 -11 0 -17 5 -14 13 2 6 11 11 20 11 9
-1 19 7 22 17 4 11 15 19 26 19 16 0 19 7 19 49 0 42 -3 49 -22 55 -31 8 -193
8 -201 -1z m57 -18 c-4 -8 -9 -15 -13 -15 -4 0 -8 7 -8 15 0 8 6 15 13 15 8 0
11 -6 8 -15z m66 -145 c0 -5 -5 -10 -11 -10 -5 0 -7 5 -4 10 3 6 8 10 11 10 2
0 4 -4 4 -10z"/>
<path d="M6085 7799 c-4 -6 -5 -13 -2 -16 7 -7 27 6 27 18 0 12 -17 12 -25 -2z"/>
<path d="M4790 7675 c0 -5 5 -17 10 -25 5 -8 10 -10 10 -5 0 6 -5 17 -10 25
-5 8 -10 11 -10 5z"/>
<path d="M6627 7653 c-3 -5 -1 -17 4 -28 7 -17 8 -17 8 8 1 27 -4 34 -12 20z"/>
<path d="M6615 7510 c3 -5 8 -10 11 -10 2 0 4 5 4 10 0 6 -5 10 -11 10 -5 0
-7 -4 -4 -10z"/>
<path d="M5140 7198 c0 -18 -7 -42 -15 -52 -8 -11 -15 -40 -15 -65 0 -41 -20
-218 -36 -328 -10 -65 11 -52 25 15 33 163 63 462 47 462 -3 0 -6 -15 -6 -32z"/>
<path d="M2791 7159 c-1 -9 18 -43 42 -75 53 -74 168 -256 196 -311 13 -26 21
-61 21 -93 0 -43 -5 -55 -36 -90 -20 -22 -67 -58 -103 -80 -36 -22 -58 -40
-48 -40 22 0 111 44 155 77 25 19 37 22 45 14 47 -47 -64 -367 -210 -609 -48
-79 -54 -95 -45 -115 10 -21 11 -21 11 8 1 18 25 70 61 129 88 146 208 448
250 626 7 30 26 79 43 109 l30 53 -69 -6 -69 -7 -69 108 c-38 59 -95 145 -128
190 -32 45 -62 92 -67 105 -7 15 -10 18 -10 7z"/>
<path d="M6163 6888 c-21 -27 -24 -71 -8 -119 15 -44 20 -49 46 -49 25 0 32 7
59 60 16 33 30 62 30 64 0 3 -16 2 -35 -1 -31 -5 -36 -2 -52 26 -20 34 -26 37
-40 19z"/>
<path d="M6306 6875 c-3 -8 -1 -15 3 -15 5 0 4 -14 -2 -31 -11 -27 -10 -32 7
-45 29 -21 89 -18 111 6 17 19 17 21 -1 41 -12 14 -26 19 -44 16 -31 -6 -63
10 -56 29 3 8 1 14 -3 14 -5 0 -11 -7 -15 -15z m100 -72 c-10 -10 -19 5 -10
18 6 11 8 11 12 0 2 -7 1 -15 -2 -18z"/>
<path d="M8 6845 c-12 -62 -9 -246 3 -216 5 13 8 76 7 140 -2 86 -5 106 -10
76z"/>
<path d="M1 6085 c0 -66 4 -129 9 -140 5 -13 9 24 9 100 0 66 -4 129 -9 140
-5 13 -9 -24 -9 -100z"/>
<path d="M2138 5898 c-3 -7 1 -71 8 -142 l12 -129 66 -62 c36 -33 66 -64 66
-67 0 -4 -23 9 -51 28 -28 19 -55 34 -60 34 -29 0 11 -69 115 -199 37 -47 74
-98 82 -114 9 -16 17 -27 20 -24 2 2 -10 76 -27 163 -30 157 -32 161 -109 304
-43 80 -85 162 -93 183 -17 40 -22 44 -29 25z"/>
<path d="M3050 5653 c0 -10 5 -25 10 -33 9 -13 12 -12 25 4 22 29 18 46 -10
46 -17 0 -25 -5 -25 -17z"/>
<path d="M2560 5254 c0 -14 62 -269 67 -274 3 -3 2 12 -2 33 -6 32 -4 41 14
53 29 20 27 67 -4 119 -21 37 -75 86 -75 69z"/>
<path d="M2631 4954 c0 -11 3 -14 6 -6 3 7 2 16 -1 19 -3 4 -6 -2 -5 -13z"/>
<path d="M2645 4900 c3 -19 8 -54 12 -78 7 -54 18 -61 38 -23 20 40 19 47 -11
74 -14 12 -30 31 -35 42 -7 15 -8 11 -4 -15z"/>
<path d="M7149 3553 c-13 -16 -12 -17 4 -4 9 7 17 15 17 17 0 8 -8 3 -21 -13z"/>
<path d="M7109 3523 c-13 -16 -12 -17 4 -4 9 7 17 15 17 17 0 8 -8 3 -21 -13z"/>
<path d="M6977 3426 c-60 -46 -121 -96 -135 -111 -18 -19 -11 -15 23 11 28 22
85 66 127 98 67 50 110 88 97 85 -2 0 -53 -38 -112 -83z"/>
<path d="M6781 3270 c-13 -11 -19 -20 -14 -20 6 0 18 9 28 20 23 25 17 25 -14
0z"/>
<path d="M6639 3222 c6 -12 16 -24 22 -28 8 -4 8 -1 0 14 -6 12 -16 24 -22 28
-8 4 -8 1 0 -14z"/>
<path d="M10802 2358 c-7 -7 -12 -16 -12 -21 0 -5 7 -1 16 8 9 9 14 18 12 20
-2 3 -10 -1 -16 -7z"/>
<path d="M10595 2130 c-3 -5 -1 -10 4 -10 6 0 11 5 11 10 0 6 -2 10 -4 10 -3
0 -8 -4 -11 -10z"/>
<path d="M10511 2044 c-12 -14 -21 -27 -19 -30 3 -2 17 10 33 26 16 17 25 30
19 29 -5 0 -20 -11 -33 -25z"/>
<path d="M10425 1960 c-16 -17 -25 -30 -21 -30 10 0 59 50 54 56 -3 2 -17 -10
-33 -26z"/>
<path d="M6880 1966 c0 -3 14 -12 30 -21 17 -9 30 -13 30 -11 0 3 -13 12 -30
21 -16 9 -30 13 -30 11z"/>
<path d="M6950 1925 c0 -2 18 -14 40 -25 22 -11 40 -18 40 -15 0 2 -18 14 -40
25 -22 11 -40 18 -40 15z"/>
<path d="M7060 1866 c0 -3 14 -12 30 -21 17 -9 30 -13 30 -11 0 3 -13 12 -30
21 -16 9 -30 13 -30 11z"/>
<path d="M6800 1836 c0 -3 14 -12 30 -21 17 -9 30 -13 30 -11 0 3 -13 12 -30
21 -16 9 -30 13 -30 11z"/>
<path d="M7150 1816 c0 -3 9 -10 20 -16 11 -6 20 -8 20 -6 0 3 -9 10 -20 16
-11 6 -20 8 -20 6z"/>
<path d="M6915 1771 c23 -22 543 -276 550 -269 2 2 -123 65 -278 141 -155 76
-277 133 -272 128z"/>
<path d="M10215 1770 c-3 -5 -1 -10 4 -10 6 0 11 5 11 10 0 6 -2 10 -4 10 -3
0 -8 -4 -11 -10z"/>
<path d="M7675 1678 l-50 -53 53 50 c48 46 57 55 49 55 -1 0 -25 -24 -52 -52z"/>
<path d="M10045 1620 c-3 -5 -1 -10 4 -10 6 0 11 5 11 10 0 6 -2 10 -4 10 -3
0 -8 -4 -11 -10z"/>
<path d="M7520 1600 c17 -11 47 -14 36 -3 -3 4 -17 8 -29 10 -17 2 -19 1 -7
-7z"/>
<path d="M9850 1470 c0 -5 5 -10 10 -10 6 0 10 5 10 10 0 6 -4 10 -10 10 -5 0
-10 -4 -10 -10z"/>
<path d="M9790 1430 c0 -5 5 -10 10 -10 6 0 10 5 10 10 0 6 -4 10 -10 10 -5 0
-10 -4 -10 -10z"/>
<path d="M9640 1319 c0 -5 5 -7 10 -4 6 3 10 8 10 11 0 2 -4 4 -10 4 -5 0 -10
-5 -10 -11z"/>
<path d="M9580 1279 c0 -5 5 -7 10 -4 6 3 10 8 10 11 0 2 -4 4 -10 4 -5 0 -10
-5 -10 -11z"/>
<path d="M9515 1240 c-3 -5 -1 -10 4 -10 6 0 11 5 11 10 0 6 -2 10 -4 10 -3 0
-8 -4 -11 -10z"/>
<path d="M9270 1090 c0 -5 5 -10 10 -10 6 0 10 5 10 10 0 6 -4 10 -10 10 -5 0
-10 -4 -10 -10z"/>
<path d="M9240 1070 c0 -5 5 -10 10 -10 6 0 10 5 10 10 0 6 -4 10 -10 10 -5 0
-10 -4 -10 -10z"/>
<path d="M9200 1050 c0 -5 5 -10 11 -10 5 0 7 5 4 10 -3 6 -8 10 -11 10 -2 0
-4 -4 -4 -10z"/>
<path d="M6150 980 c-32 -28 -146 -90 -164 -90 -8 0 -6 19 10 85 7 30 7 30
-13 12 -20 -17 -143 -192 -143 -202 0 -3 -27 -49 -59 -103 -79 -130 -161 -273
-161 -281 0 -10 -50 -61 -60 -61 -6 0 -10 -4 -10 -10 0 -6 33 -10 80 -10 54 0
80 4 80 12 0 6 8 1 19 -10 16 -19 28 -22 97 -21 92 1 75 17 -18 18 -32 1 -58
5 -58 10 0 11 62 61 74 61 32 0 262 222 311 300 24 39 60 237 53 293 l-3 27
-35 -30z"/>
<path d="M9088 983 c7 -3 16 -2 19 1 4 3 -2 6 -13 5 -11 0 -14 -3 -6 -6z"/>
<path d="M9048 963 c7 -3 16 -2 19 1 4 3 -2 6 -13 5 -11 0 -14 -3 -6 -6z"/>
<path d="M9005 940 c3 -5 8 -10 11 -10 2 0 4 5 4 10 0 6 -5 10 -11 10 -5 0 -7
-4 -4 -10z"/>
<path d="M8960 920 c0 -5 5 -10 10 -10 6 0 10 5 10 10 0 6 -4 10 -10 10 -5 0
-10 -4 -10 -10z"/>
<path d="M8920 900 c0 -5 5 -10 10 -10 6 0 10 5 10 10 0 6 -4 10 -10 10 -5 0
-10 -4 -10 -10z"/>
<path d="M8875 880 c-3 -5 1 -10 10 -10 9 0 13 5 10 10 -3 6 -8 10 -10 10 -2
0 -7 -4 -10 -10z"/>
<path d="M8835 860 c-3 -5 -1 -10 4 -10 6 0 11 5 11 10 0 6 -2 10 -4 10 -3 0
-8 -4 -11 -10z"/>
<path d="M8788 833 c7 -3 16 -2 19 1 4 3 -2 6 -13 5 -11 0 -14 -3 -6 -6z"/>
<path d="M8738 813 c7 -3 16 -2 19 1 4 3 -2 6 -13 5 -11 0 -14 -3 -6 -6z"/>
<path d="M8645 770 c4 -6 11 -8 16 -5 14 9 11 15 -7 15 -8 0 -12 -5 -9 -10z"/>
<path d="M8590 750 c0 -5 7 -10 15 -10 8 0 15 5 15 10 0 6 -7 10 -15 10 -8 0
-15 -4 -15 -10z"/>
<path d="M8540 730 c0 -5 5 -10 10 -10 6 0 10 5 10 10 0 6 -4 10 -10 10 -5 0
-10 -4 -10 -10z"/>
<path d="M8490 710 c-13 -8 -13 -10 2 -10 9 0 20 5 23 10 8 13 -5 13 -25 0z"/>
<path d="M8435 690 c-3 -5 1 -10 10 -10 9 0 13 5 10 10 -3 6 -8 10 -10 10 -2
0 -7 -4 -10 -10z"/>
<path d="M8378 663 c6 -2 18 -2 25 0 6 3 1 5 -13 5 -14 0 -19 -2 -12 -5z"/>
<path d="M8318 643 c6 -2 18 -2 25 0 6 3 1 5 -13 5 -14 0 -19 -2 -12 -5z"/>
<path d="M8268 623 c7 -3 16 -2 19 1 4 3 -2 6 -13 5 -11 0 -14 -3 -6 -6z"/>
<path d="M8205 600 c4 -6 11 -8 16 -5 14 9 11 15 -7 15 -8 0 -12 -5 -9 -10z"/>
<path d="M8138 578 c9 -9 15 -9 24 0 9 9 7 12 -12 12 -19 0 -21 -3 -12 -12z"/>
<path d="M8070 560 c0 -5 7 -10 15 -10 8 0 15 5 15 10 0 6 -7 10 -15 10 -8 0
-15 -4 -15 -10z"/>
<path d="M7995 540 c3 -5 13 -10 21 -10 8 0 14 5 14 10 0 6 -9 10 -21 10 -11
0 -17 -4 -14 -10z"/>
<path d="M7920 520 c0 -5 12 -10 26 -10 14 0 23 4 19 10 -3 6 -15 10 -26 10
-10 0 -19 -4 -19 -10z"/>
<path d="M7845 500 c-4 -6 5 -10 19 -10 14 0 26 5 26 10 0 6 -9 10 -19 10 -11
0 -23 -4 -26 -10z"/>
<path d="M7765 480 c-4 -6 7 -10 25 -10 18 0 29 4 25 10 -3 6 -15 10 -25 10
-10 0 -22 -4 -25 -10z"/>
<path d="M7689 459 c-10 -6 -7 -9 14 -9 29 0 35 5 14 13 -8 3 -20 1 -28 -4z"/>
<path d="M7603 433 c9 -2 23 -2 30 0 6 3 -1 5 -18 5 -16 0 -22 -2 -12 -5z"/>
<path d="M7495 410 c3 -5 15 -10 25 -10 10 0 22 5 25 10 4 6 -7 10 -25 10 -18
0 -29 -4 -25 -10z"/>
<path d="M7385 390 c3 -5 17 -10 30 -10 13 0 27 5 30 10 4 6 -8 10 -30 10 -22
0 -34 -4 -30 -10z"/>
<path d="M5270 370 c0 -5 16 -10 35 -10 19 0 35 5 35 10 0 6 -16 10 -35 10
-19 0 -35 -4 -35 -10z"/>
<path d="M7260 370 c0 -5 13 -10 29 -10 17 0 33 5 36 10 4 6 -8 10 -29 10 -20
0 -36 -4 -36 -10z"/>
<path d="M5400 350 c0 -5 21 -10 46 -10 27 0 43 4 39 10 -3 6 -24 10 -46 10
-21 0 -39 -4 -39 -10z"/>
<path d="M7120 350 c0 -5 18 -10 40 -10 22 0 40 5 40 10 0 6 -18 10 -40 10
-22 0 -40 -4 -40 -10z"/>
<path d="M6950 330 c-11 -7 2 -10 43 -10 36 0 56 4 52 10 -8 13 -75 13 -95 0z"/>
<path d="M6725 310 c-21 -5 -4 -8 55 -8 56 0 77 3 60 8 -31 10 -76 10 -115 0z"/>
<path d="M6070 291 c-88 -17 253 -28 420 -14 80 7 82 8 40 14 -55 9 -412 9
-460 0z"/>
</g>
</svg>
